<?xml version="1.0" encoding="utf-8"?>
<!-- Generator: Adobe Illustrator 16.0.0, SVG Export Plug-In . SVG Version: 6.00 Build 0)  -->
<!DOCTYPE svg PUBLIC "-//W3C//DTD SVG 1.1//EN" "http://www.w3.org/Graphics/SVG/1.1/DTD/svg11.dtd">
<svg version="1.1" id="Layer_1" xmlns="http://www.w3.org/2000/svg" xmlns:xlink="http://www.w3.org/1999/xlink" x="0px" y="0px"
	 width="150px" height="35px" viewBox="0 0 150 35" enable-background="new 0 0 150 35" xml:space="preserve">
<g>
	<path fill="#05CBF5" d="M30.708,14.288c-0.736-5.155-5.167-9.121-10.523-9.121c-5.366,0-9.802,3.978-10.527,9.143
		c-0.434,0.352-0.713,0.889-0.713,1.49c0,1.057,0.858,1.913,1.916,1.913c1.057,0,1.914-0.856,1.914-1.913
		c0-0.546-0.23-1.04-0.594-1.387c0.585-3.406,3.292-6.087,6.707-6.634v14.737c-0.376,0.351-0.615,0.852-0.615,1.409
		c0,1.055,0.856,1.914,1.914,1.914c1.057,0,1.912-0.859,1.912-1.914c0-0.558-0.236-1.059-0.617-1.409V7.779
		c3.425,0.549,6.137,3.24,6.715,6.656c-0.352,0.347-0.571,0.83-0.571,1.365c0,1.057,0.854,1.913,1.912,1.913
		c1.057,0,1.915-0.856,1.915-1.913C31.451,15.185,31.161,14.635,30.708,14.288z"/>
	<g>
		<path fill="#15A0F9" d="M20.192,2.579c1.842,0,3.673,0.403,5.248,1.079c0.258,0.751,0.971,1.291,1.809,1.291
			c1.058,0,1.913-0.856,1.913-1.913c0-1.057-0.855-1.915-1.913-1.915c-0.289,0-0.561,0.067-0.806,0.179
			c-1.916-0.842-4.023-1.315-6.251-1.315c-8.347,0-15.172,6.496-15.709,14.705h0.005c-0.115,0.958-0.177,1.99-0.177,3.112
			c0,1.601-2.42,3.597-2.603,4.434c-0.182,0.836,0.867,0.963,1.555,1.004c0.682,0.042,1.276,0.376,1.048,0.878
			C4.082,24.62,3.944,24.87,3.944,24.87s0.093,0.799,1.004,1.092c0,0-1.141,0.749-0.364,1.542c0.776,0.795,0.924,1.09,0.776,1.758
			c-0.12,0.525-0.081,2.388,2.601,2.388c2.807,0,5.62-0.354,6.206,2.916h2.498C16.23,22.043,6.959,22.76,6.959,15.893
			C6.959,8.476,12.874,2.579,20.192,2.579z"/>
		<path fill="#15A0F9" d="M24.616,30.928h3.773c0.724-2.321,2.346-4.612,3.886-5.761l-2.431-2.72
			C27.2,24.514,25.146,28.276,24.616,30.928z"/>
		<path fill="#15A0F9" d="M35.971,15.8c0-4.576-1.947-8.697-5.06-11.581l-1.756,1.865c2.614,2.417,4.252,5.874,4.252,9.716
			c0,1.415-0.225,2.779-0.634,4.056c-0.679,0.295-1.154,0.972-1.154,1.757c0,1.057,0.858,1.913,1.914,1.913
			c1.057,0,1.915-0.856,1.915-1.913c0-0.34-0.091-0.661-0.246-0.938C35.699,19.14,35.971,17.502,35.971,15.8z"/>
	</g>
	<g>
		<g>
			<path fill="#FFFFFF" d="M58.186,24.546h-4.191l-3.222-8.132l-0.287,10.159h-3.378l0.786-15.698h3.693l4.504,11.149l4.504-11.149
				h3.694l0.787,15.698h-3.379l-0.289-10.159L58.186,24.546z"/>
			<path fill="#FFFFFF" d="M72.435,26.572h-3.303V10.874h3.303V26.572z"/>
			<path fill="#FFFFFF" d="M79.975,14.669v11.903h-3.221V10.874h4.4L87.78,22.8V10.874h3.222v15.698h-4.399L79.975,14.669z"/>
			<path fill="#FFFFFF" d="M101.688,10.874c4.295,0,5.788,1.958,5.788,4.22v7.256c0,2.243-1.493,4.222-5.788,4.222h-6.494V10.874
				H101.688z M98.49,23.957h2.857c2.225,0,2.828-0.804,2.828-2.312V15.8c0-1.508-0.604-2.311-2.828-2.311H98.49V23.957z"/>
			<path fill="#FFFFFF" d="M124.081,21.975c0,2.619-1.678,4.834-6.601,4.834s-6.602-2.215-6.602-4.834V15.47
				c0-2.618,1.679-4.833,6.602-4.833s6.601,2.215,6.601,4.833V21.975z M114.18,21.811c0,1.485,0.84,2.382,3.301,2.382
				s3.3-0.896,3.3-2.382v-6.175c0-1.486-0.839-2.38-3.3-2.38s-3.301,0.894-3.301,2.38V21.811z"/>
			<path fill="#FFFFFF" d="M131.18,10.874v15.958c0,1.627-0.735,2.428-3.564,4.598l-1.964-2.007c1.992-1.719,2.227-1.86,2.227-2.851
				V10.874H131.18z"/>
			<path fill="#FFFFFF" d="M148.044,21.975c0,2.619-1.676,4.834-6.599,4.834c-4.926,0-6.602-2.215-6.602-4.834V15.47
				c0-2.618,1.676-4.833,6.602-4.833c4.923,0,6.599,2.215,6.599,4.833V21.975z M138.146,21.811c0,1.485,0.837,2.382,3.299,2.382
				c2.461,0,3.298-0.896,3.298-2.382v-6.175c0-1.486-0.837-2.38-3.298-2.38c-2.462,0-3.299,0.894-3.299,2.38V21.811z"/>
		</g>
	</g>
</g>
</svg>
